<svg xmlns="http://www.w3.org/2000/svg" width="15" height="15" fill="currentColor" style=""><rect id="backgroundrect" width="100%" height="100%" x="0" y="0" fill="none" stroke="none" class="" style=""/>
  
<g class="currentLayer" style=""><title>Layer 1</title><path d="M0,0.5 A0.5,0.5 0 0 1 0.5,0 H2 a0.5,0.5 0 0 1 0.48500000000000015,0.37900000000000017 L2.89,2 H14.5 a0.5,0.5 0 0 1 0.49100000000000016,0.5920000000000003 l-1.5,8 A0.5,0.5 0 0 1 13,11 H4 a0.5,0.5 0 0 1 -0.49100000000000016,-0.40800000000000014 L2.01,2.607 L1.61,1 H0.5 a0.5,0.5 0 0 1 -0.5,-0.5 zM3.102,3 l1.3130000000000002,7 h8.17 l1.3130000000000002,-7 H3.102 zM5,11 a2,2 0 1 0 0,4 a2,2 0 0 0 0,-4 zm7,0 a2,2 0 1 0 0,4 a2,2 0 0 0 0,-4 zm-7,1 a1,1 0 1 1 0,2 a1,1 0 0 1 0,-2 zm7,0 a1,1 0 1 1 0,2 a1,1 0 0 1 0,-2 z" id="svg_1" class="selected" fill="#ffffff" fill-opacity="1"/></g></svg>