<?xml version="1.0" standalone="no"?>
<!DOCTYPE svg PUBLIC "-//W3C//DTD SVG 20010904//EN"
 "http://www.w3.org/TR/2001/REC-SVG-20010904/DTD/svg10.dtd">
<svg version="1.0" xmlns="http://www.w3.org/2000/svg"
 width="512.000000pt" height="512.000000pt" viewBox="0 0 512.000000 512.000000"
 preserveAspectRatio="xMidYMid meet">

<g transform="translate(0.000000,512.000000) scale(0.100000,-0.100000)"
fill="#000000" stroke="none">
<path d="M2286 4594 c-137 -18 -330 -68 -461 -119 -797 -308 -1315 -1063
-1315 -1915 0 -1135 915 -2050 2050 -2050 1135 0 2050 915 2050 2050 0 550
-212 1062 -600 1450 -321 321 -737 526 -1187 585 -139 18 -401 18 -537 -1z
m599 -1099 c160 -24 281 -61 405 -122 102 -50 126 -67 206 -147 71 -71 99
-107 127 -166 119 -245 86 -466 -96 -637 -194 -183 -480 -287 -827 -300 -177
-6 -332 9 -543 56 -92 20 -130 25 -133 17 -3 -7 -3 -141 -2 -299 l3 -287 -307
0 -308 0 0 588 c0 657 0 653 70 799 142 292 443 467 885 512 119 13 394 5 520
-14z m-575 -1445 c49 -13 100 -53 127 -98 28 -46 28 -41 3 26 -30 78 -28 82
31 82 47 0 51 -2 63 -32 7 -18 24 -75 37 -125 13 -51 26 -93 29 -93 4 0 15 35
25 78 10 42 24 99 32 125 l14 48 42 -3 41 -3 32 -125 c17 -69 34 -118 37 -110
4 8 18 58 33 110 37 132 36 130 94 130 28 0 50 -4 50 -8 0 -5 -9 -35 -20 -67
-26 -75 -25 -77 10 -24 114 173 375 92 375 -116 l0 -60 -152 -3 c-96 -1 -153
-6 -153 -13 0 -20 49 -58 83 -64 38 -7 79 9 111 44 14 15 31 21 63 21 23 0 43
-5 43 -10 0 -44 -88 -133 -147 -149 -49 -14 -50 -14 -109 4 -101 30 -161 124
-152 238 5 59 3 55 -46 -91 -52 -155 -62 -171 -105 -157 -13 4 -25 32 -46 113
-46 176 -42 175 -82 32 -19 -69 -41 -131 -48 -139 -8 -8 -23 -11 -38 -7 -22 5
-30 23 -70 143 -42 128 -45 134 -46 92 -1 -33 -6 -49 -17 -53 -9 -3 -78 -6
-155 -6 -76 0 -139 -3 -139 -8 0 -20 33 -52 65 -62 40 -13 67 -7 113 28 35 27
122 43 122 23 0 -46 -88 -134 -151 -151 -122 -33 -258 77 -259 210 0 86 34
157 96 199 56 38 105 48 164 31z m1096 2 c6 -4 29 -33 53 -64 23 -32 44 -58
46 -58 3 0 21 25 40 55 19 30 44 59 54 65 20 10 111 14 111 5 0 -3 -31 -53
-70 -110 -38 -57 -70 -107 -70 -109 0 -3 30 -51 66 -108 36 -56 68 -108 71
-115 4 -10 -8 -13 -50 -13 -63 0 -75 9 -112 79 -41 79 -39 78 -75 14 -50 -89
-56 -93 -117 -93 -29 0 -53 4 -53 10 0 5 29 55 65 110 36 55 65 108 65 116 0
9 -29 58 -65 110 -36 52 -65 98 -65 104 0 11 90 13 106 2z"/>
<path d="M2423 3356 c-128 -31 -256 -132 -321 -254 -65 -122 -74 -182 -79
-524 -3 -170 -2 -308 2 -308 5 0 47 36 96 80 48 44 90 80 94 80 3 0 27 -18 53
-39 157 -132 390 -159 552 -64 162 96 270 340 241 550 -28 197 -126 364 -259
436 -100 54 -258 72 -379 43z"/>
<path d="M2220 1949 c-32 -13 -60 -39 -60 -56 0 -10 24 -13 105 -13 103 0 105
1 95 20 -23 43 -94 68 -140 49z"/>
<path d="M3111 1942 c-19 -9 -41 -27 -49 -39 l-14 -23 111 0 c110 0 111 0 101
21 -14 25 -68 59 -95 59 -11 0 -35 -8 -54 -18z"/>
</g>
</svg>
