<svg height="512" viewBox="0 0 512 512" width="512" xmlns="http://www.w3.org/2000/svg"><g><g fill="#57a4ff"><path d="m372 168h-232a19.994 19.994 0 0 0 -20 20v168c0 1.81 1.6 5.84 3.48 9.89 1.9 4.08 4.08 8.2 5.19 10.08 0 .01.01.02.01.03h243.32a19.994 19.994 0 0 0 20-20v-168a19.994 19.994 0 0 0 -20-20zm-188 104a72.027 72.027 0 0 1 99.8-66.43l-94.23 94.23a71.628 71.628 0 0 1 -5.57-27.8zm72 72a71.665 71.665 0 0 1 -47.48-17.89l101.59-101.59a71.987 71.987 0 0 1 -54.11 119.48z"/><path d="m256 16c-132.55 0-240 107.45-240 240s107.45 240 240 240 240-107.45 240-240-107.45-240-240-240zm-208 240c0-114.88 93.12-208 208-208a207.187 207.187 0 0 1 135.33 50.04l-267.85 267.85-25.44 25.44a207.187 207.187 0 0 1 -50.04-135.33zm208 208a207.187 207.187 0 0 1 -135.33-50.04l37.96-37.96 49.89-49.89 101.59-101.59 56.52-56.52 47.33-47.33a207.187 207.187 0 0 1 50.04 135.33c0 114.88-93.12 208-208 208z"/><path d="m128.68 376h-.05l.04-.03c0 .01.01.02.01.03z"/><path d="m129.43 376-.49.43c-.08-.13-.16-.27-.26-.43z"/></g><g fill="#004fac"><path d="m431.36 80.64a248 248 0 1 0 -350.72 350.72 248 248 0 1 0 350.72-350.72zm-11.31 339.41a232 232 0 0 1 -328.1-328.1 232 232 0 0 1 328.1 328.1z"/><path d="m420.03 115.46a8.014 8.014 0 0 0 -11.73-.45l-293.29 293.29a8.014 8.014 0 0 0 .45 11.73 216 216 0 0 0 304.57-304.57zm-110.71 121.16a63.987 63.987 0 0 1 -88.7 88.7zm-100.19 100.2a79.987 79.987 0 0 0 111.69-111.69l49.12-49.13h2.06a12.01 12.01 0 0 1 12 12v168a12.01 12.01 0 0 1 -12 12h-194.06zm46.87 119.18a200.056 200.056 0 0 1 -123.43-42.62l29.37-29.38h210.06a28.031 28.031 0 0 0 28-28v-168a28.022 28.022 0 0 0 -16.53-25.53l29.91-29.9a200.056 200.056 0 0 1 42.62 123.43c0 110.28-89.72 200-200 200z"/><path d="m396.54 91.97a216 216 0 0 0 -304.57 304.57 7.975 7.975 0 0 0 5.76 2.78c.11.01.21.01.31.01a8.025 8.025 0 0 0 5.66-2.34l91.58-91.58c.01-.01.02-.02.02-.03l94.07-94.07c.02-.01.03-.03.05-.04l107.57-107.57a8.014 8.014 0 0 0 -.45-11.73zm-203.26 192.81a64.04 64.04 0 0 1 75.5-75.5zm88.5-88.51a79.994 79.994 0 0 0 -101.51 101.51l-52.27 52.28v-162.06a12.01 12.01 0 0 1 12-12h162.06zm-55.53-36.27 4-16h51.5l4 16zm91.81 0h-15.81l-6.49-25.94a8 8 0 0 0 -7.76-6.06h-64a8 8 0 0 0 -7.76 6.06l-6.49 25.94h-69.75a28.031 28.031 0 0 0 -28 28v168a27.944 27.944 0 0 0 1.39 8.67l-14.77 14.76a200.056 200.056 0 0 1 -42.62-123.43c0-110.28 89.72-200 200-200a200.056 200.056 0 0 1 123.43 42.62z"/></g></g></svg>